<?xml version="1.0" encoding="utf-8"?>
<!-- Generator: Adobe Illustrator 27.8.0, SVG Export Plug-In . SVG Version: 6.00 Build 0)  -->
<svg version="1.1" id="Layer_1" xmlns="http://www.w3.org/2000/svg" xmlns:xlink="http://www.w3.org/1999/xlink" x="0px" y="0px"
	 viewBox="0 0 714.6 714.6" style="enable-background:new 0 0 714.6 714.6;" xml:space="preserve">
<style type="text/css">
	.st0{fill:#FFFFFF;}
</style>
<g>
	<path class="st0" d="M602.8,714.6H111.9C50.1,714.6,0,664.5,0,602.8V111.9C0,50.1,50.1,0,111.9,0h490.9
		c61.8,0,111.9,50.1,111.9,111.9v490.9C714.6,664.5,664.5,714.6,602.8,714.6z"/>
	<g>
		<path d="M517.8,509.9L392.2,327.5L378,306.9l-89.8-130.5l-7.4-10.8H170.4l26.9,39.1l119.4,173.5l14.2,20.6l96,139.4l7.4,10.8
			h110.4L517.8,509.9z M447.4,524.1l-99.7-144.8l-14.2-20.6L217.9,190.6h49.8l93.6,135.9l14.2,20.6l121.8,177H447.4z"/>
		<polygon points="333.6,358.6 347.7,379.2 330.9,398.8 201.8,549 170,549 316.7,378.2 		"/>
		<polygon points="531.4,165.6 392.2,327.5 375.4,347.1 361.2,326.5 378,306.9 472.3,197.1 499.6,165.6 		"/>
	</g>
</g>
</svg>
